<svg width="84" height="84" viewBox="0 0 84 84" fill="none" xmlns="http://www.w3.org/2000/svg">
<path fill-rule="evenodd" clip-rule="evenodd" d="M42.0001 0.333652C18.9876 0.333654 0.333399 18.9878 0.333401 42.0003C0.333403 65.0128 18.9876 83.667 42.0001 83.667C65.0126 83.667 83.6667 65.0128 83.6667 42.0003C83.6667 18.9878 65.0126 0.33365 42.0001 0.333652ZM33.5417 56.7087C32.9565 56.1227 32.6278 55.3285 32.6278 54.5003C32.6278 53.6722 32.9565 52.8779 33.5417 52.292L43.8334 42.0003L33.5417 31.7087C33.2347 31.4226 32.9885 31.0776 32.8177 30.6942C32.6468 30.3109 32.555 29.8971 32.5476 29.4775C32.5402 29.0579 32.6174 28.6411 32.7746 28.252C32.9317 27.8629 33.1657 27.5094 33.4624 27.2127C33.7592 26.9159 34.1126 26.682 34.5017 26.5248C34.8909 26.3676 35.3077 26.2905 35.7272 26.2979C36.1468 26.3053 36.5607 26.3971 36.944 26.5679C37.3273 26.7387 37.6723 26.985 37.9584 27.292L50.4584 39.792C51.0436 40.3779 51.3723 41.1722 51.3723 42.0003C51.3723 42.8285 51.0436 43.6227 50.4584 44.2087L37.9584 56.7087C37.3725 57.2939 36.5782 57.6226 35.7501 57.6226C34.9219 57.6226 34.1277 57.2939 33.5417 56.7087Z" fill="url(#paint0_linear_1_106)"/>
<defs>
<linearGradient id="paint0_linear_1_106" x1="83.6667" y1="65.4237" x2="33.617" y2="65.0028" gradientUnits="userSpaceOnUse">
<stop stop-color="#AB5BFB"/>
<stop offset="1" stop-color="#7690EA"/>
</linearGradient>
</defs>
</svg>
